<mxfile host="Electron" agent="Mozilla/5.0 (Windows NT 10.0; Win64; x64) AppleWebKit/537.36 (KHTML, like Gecko) draw.io/24.7.8 Chrome/128.0.6613.36 Electron/32.0.1 Safari/537.36" version="24.7.8">
  <diagram name="Страница — 1" id="Q2RETAonCarEl27Ypw0B">
    <mxGraphModel dx="2261" dy="844" grid="1" gridSize="10" guides="1" tooltips="1" connect="1" arrows="1" fold="1" page="1" pageScale="1" pageWidth="827" pageHeight="1169" math="0" shadow="0">
      <root>
        <mxCell id="0" />
        <mxCell id="1" parent="0" />
        <mxCell id="_IFTZrsZaGohWIfHuZ_6-1" value="&lt;font style=&quot;font-size: 20px;&quot;&gt;&lt;b&gt;JOBS TO BE DONE&lt;/b&gt;&lt;/font&gt;" style="rounded=0;whiteSpace=wrap;html=1;fillColor=#9d9d9b;fontColor=#FAFAFA;strokeColor=none;" parent="1" vertex="1">
          <mxGeometry x="160" y="130" width="480" height="60" as="geometry" />
        </mxCell>
        <mxCell id="_IFTZrsZaGohWIfHuZ_6-2" value="&lt;font size=&quot;1&quot; style=&quot;&quot;&gt;&lt;b style=&quot;font-size: 18px;&quot;&gt;EMPTIONAL JOB&lt;/b&gt;&lt;/font&gt;" style="rounded=0;whiteSpace=wrap;html=1;fillColor=#e98024;fontColor=#FAFAFA;strokeColor=none;" parent="1" vertex="1">
          <mxGeometry x="280" y="250" width="240" height="60" as="geometry" />
        </mxCell>
        <mxCell id="_IFTZrsZaGohWIfHuZ_6-4" value="FUNCTIONAL JOB" style="swimlane;fontStyle=1;childLayout=stackLayout;horizontal=1;startSize=30;horizontalStack=0;resizeParent=1;resizeParentMax=0;resizeLast=0;collapsible=1;marginBottom=0;whiteSpace=wrap;html=1;fillColor=#48b3bd;strokeColor=none;fontColor=#F7F7F7;fontSize=17;" parent="1" vertex="1">
          <mxGeometry x="-190" y="250" width="280" height="370" as="geometry" />
        </mxCell>
        <mxCell id="_IFTZrsZaGohWIfHuZ_6-5" value="&lt;span style=&quot;font-size: 14px;&quot; id=&quot;docs-internal-guid-42d45f28-7fff-6a86-afdd-adb71b96a9e5&quot;&gt;&lt;span style=&quot;font-size: 14px; font-family: Arial, sans-serif; background-color: transparent; font-variant-numeric: normal; font-variant-east-asian: normal; font-variant-alternates: normal; font-variant-position: normal; vertical-align: baseline; white-space-collapse: preserve;&quot;&gt;Creating application backups. Including, automation of backup creation&lt;/span&gt;&lt;/span&gt;" style="text;strokeColor=none;fillColor=#e9f4f6;align=left;verticalAlign=middle;spacingLeft=4;spacingRight=4;overflow=hidden;points=[[0,0.5],[1,0.5]];portConstraint=eastwest;rotatable=0;whiteSpace=wrap;html=1;fontSize=14;fontStyle=1;fontColor=#7D7D7D;" parent="_IFTZrsZaGohWIfHuZ_6-4" vertex="1">
          <mxGeometry y="30" width="280" height="60" as="geometry" />
        </mxCell>
        <mxCell id="_IFTZrsZaGohWIfHuZ_6-6" value="&lt;span style=&quot;font-size: 14px;&quot; id=&quot;docs-internal-guid-b99dd9df-7fff-7b02-8adb-97bbc54512f9&quot;&gt;&lt;span style=&quot;font-size: 14px; font-family: Arial, sans-serif; background-color: transparent; font-variant-numeric: normal; font-variant-east-asian: normal; font-variant-alternates: normal; font-variant-position: normal; vertical-align: baseline; white-space-collapse: preserve;&quot;&gt;Reliable and secure storage of created backups of the application&lt;/span&gt;&lt;/span&gt;" style="text;strokeColor=none;fillColor=#e9f4f6;align=left;verticalAlign=middle;spacingLeft=4;spacingRight=4;overflow=hidden;points=[[0,0.5],[1,0.5]];portConstraint=eastwest;rotatable=0;whiteSpace=wrap;html=1;fontSize=14;fontStyle=1;fontColor=#7D7D7D;" parent="_IFTZrsZaGohWIfHuZ_6-4" vertex="1">
          <mxGeometry y="90" width="280" height="60" as="geometry" />
        </mxCell>
        <mxCell id="_IFTZrsZaGohWIfHuZ_6-7" value="&lt;span style=&quot;font-size: 14px;&quot; id=&quot;docs-internal-guid-9442aab6-7fff-92b3-4aba-5b99118b1cf5&quot;&gt;&lt;span style=&quot;font-size: 14px; font-family: Arial, sans-serif; background-color: transparent; font-variant-numeric: normal; font-variant-east-asian: normal; font-variant-alternates: normal; font-variant-position: normal; vertical-align: baseline; white-space-collapse: preserve;&quot;&gt;Flexible backup management&lt;/span&gt;&lt;/span&gt;" style="text;strokeColor=none;fillColor=#e9f4f6;align=left;verticalAlign=middle;spacingLeft=4;spacingRight=4;overflow=hidden;points=[[0,0.5],[1,0.5]];portConstraint=eastwest;rotatable=0;whiteSpace=wrap;html=1;fontSize=14;fontStyle=1;fontColor=#7D7D7D;" parent="_IFTZrsZaGohWIfHuZ_6-4" vertex="1">
          <mxGeometry y="150" width="280" height="30" as="geometry" />
        </mxCell>
        <mxCell id="_IFTZrsZaGohWIfHuZ_6-36" value="&lt;span style=&quot;font-size: 14px;&quot; id=&quot;docs-internal-guid-34529744-7fff-cbf4-f556-70ed03a76d50&quot;&gt;&lt;span style=&quot;font-size: 14px; font-family: Arial, sans-serif; background-color: transparent; font-variant-numeric: normal; font-variant-east-asian: normal; font-variant-alternates: normal; font-variant-position: normal; vertical-align: baseline; white-space-collapse: preserve;&quot;&gt;Convenient and fast recovery of application backups&lt;/span&gt;&lt;/span&gt;" style="text;strokeColor=none;fillColor=#e9f4f6;align=left;verticalAlign=middle;spacingLeft=4;spacingRight=4;overflow=hidden;points=[[0,0.5],[1,0.5]];portConstraint=eastwest;rotatable=0;whiteSpace=wrap;html=1;fontSize=14;fontStyle=1;fontColor=#7D7D7D;" parent="_IFTZrsZaGohWIfHuZ_6-4" vertex="1">
          <mxGeometry y="180" width="280" height="40" as="geometry" />
        </mxCell>
        <mxCell id="_IFTZrsZaGohWIfHuZ_6-47" value="&lt;span style=&quot;font-size: 14px;&quot; id=&quot;docs-internal-guid-5b516d79-7fff-dde4-b803-2499fe35dfc9&quot;&gt;&lt;span style=&quot;font-size: 14px; font-family: Arial, sans-serif; background-color: transparent; font-variant-numeric: normal; font-variant-east-asian: normal; font-variant-alternates: normal; font-variant-position: normal; vertical-align: baseline; white-space-collapse: preserve;&quot;&gt;Flexibility in choosing backup policies&lt;/span&gt;&lt;/span&gt;" style="text;strokeColor=none;fillColor=#e9f4f6;align=left;verticalAlign=middle;spacingLeft=4;spacingRight=4;overflow=hidden;points=[[0,0.5],[1,0.5]];portConstraint=eastwest;rotatable=0;whiteSpace=wrap;html=1;fontSize=14;fontStyle=1;fontColor=#7D7D7D;" parent="_IFTZrsZaGohWIfHuZ_6-4" vertex="1">
          <mxGeometry y="220" width="280" height="40" as="geometry" />
        </mxCell>
        <mxCell id="_IFTZrsZaGohWIfHuZ_6-37" value="" style="text;strokeColor=none;fillColor=#e9f4f6;align=left;verticalAlign=middle;spacingLeft=4;spacingRight=4;overflow=hidden;points=[[0,0.5],[1,0.5]];portConstraint=eastwest;rotatable=0;whiteSpace=wrap;html=1;fontSize=15;" parent="_IFTZrsZaGohWIfHuZ_6-4" vertex="1">
          <mxGeometry y="260" width="280" height="110" as="geometry" />
        </mxCell>
        <mxCell id="_IFTZrsZaGohWIfHuZ_6-13" value="&lt;font style=&quot;font-size: 15px;&quot; color=&quot;#ededed&quot;&gt;&lt;span style=&quot;font-size: 15px;&quot;&gt;Intrinsic motivations&lt;/span&gt;&lt;/font&gt;" style="swimlane;fontStyle=1;childLayout=stackLayout;horizontal=1;startSize=30;horizontalStack=0;resizeParent=1;resizeParentMax=0;resizeLast=0;collapsible=1;marginBottom=0;whiteSpace=wrap;html=1;fillColor=#f49e23;strokeColor=none;fontSize=15;" parent="1" vertex="1">
          <mxGeometry x="120" y="320" width="250" height="300" as="geometry" />
        </mxCell>
        <mxCell id="_IFTZrsZaGohWIfHuZ_6-14" value="&lt;span style=&quot;font-size: 14px;&quot; id=&quot;docs-internal-guid-139178d3-7fff-be71-33d1-3ac6cac1263e&quot;&gt;&lt;span style=&quot;font-size: 14px; font-family: Arial, sans-serif; background-color: transparent; font-variant-numeric: normal; font-variant-east-asian: normal; font-variant-alternates: normal; font-variant-position: normal; vertical-align: baseline; white-space-collapse: preserve;&quot;&gt;Simplification of work tasks - Convenient (re)store of application versions&lt;/span&gt;&lt;/span&gt;" style="text;strokeColor=none;fillColor=#fef1e0;align=left;verticalAlign=middle;spacingLeft=4;spacingRight=4;overflow=hidden;points=[[0,0.5],[1,0.5]];portConstraint=eastwest;rotatable=0;whiteSpace=wrap;html=1;fontSize=14;fontStyle=1;fontColor=#7D7D7D;" parent="_IFTZrsZaGohWIfHuZ_6-13" vertex="1">
          <mxGeometry y="30" width="250" height="70" as="geometry" />
        </mxCell>
        <mxCell id="_IFTZrsZaGohWIfHuZ_6-15" value="&lt;span style=&quot;font-size: 14px;&quot; id=&quot;docs-internal-guid-c56897fc-7fff-fe62-4c08-2698dbbcb0fe&quot;&gt;&lt;span style=&quot;font-size: 14px; font-family: Arial, sans-serif; background-color: transparent; font-variant-numeric: normal; font-variant-east-asian: normal; font-variant-alternates: normal; font-variant-position: normal; vertical-align: baseline; white-space-collapse: preserve;&quot;&gt;The absence of reprimands and fines at work - Confidence in the stable work of the application &lt;/span&gt;&lt;/span&gt;" style="text;strokeColor=none;fillColor=#fef1e0;align=left;verticalAlign=middle;spacingLeft=4;spacingRight=4;overflow=hidden;points=[[0,0.5],[1,0.5]];portConstraint=eastwest;rotatable=0;whiteSpace=wrap;html=1;fontSize=14;fontStyle=1;fontColor=#7D7D7D;" parent="_IFTZrsZaGohWIfHuZ_6-13" vertex="1">
          <mxGeometry y="100" width="250" height="60" as="geometry" />
        </mxCell>
        <mxCell id="_IFTZrsZaGohWIfHuZ_6-16" value="&lt;span style=&quot;font-size: 14px;&quot; id=&quot;docs-internal-guid-c43745b2-7fff-14fa-af44-9c04e086818f&quot;&gt;&lt;span style=&quot;font-size: 14px; font-family: Arial, sans-serif; background-color: transparent; font-variant-numeric: normal; font-variant-east-asian: normal; font-variant-alternates: normal; font-variant-position: normal; vertical-align: baseline; white-space-collapse: preserve;&quot;&gt;Less effort is spent on monitoring the work of the application - Automation of work tasks&lt;/span&gt;&lt;/span&gt;" style="text;strokeColor=none;fillColor=#fef1e0;align=left;verticalAlign=middle;spacingLeft=4;spacingRight=4;overflow=hidden;points=[[0,0.5],[1,0.5]];portConstraint=eastwest;rotatable=0;whiteSpace=wrap;html=1;fontSize=14;fontStyle=1;fontColor=#7D7D7D;" parent="_IFTZrsZaGohWIfHuZ_6-13" vertex="1">
          <mxGeometry y="160" width="250" height="70" as="geometry" />
        </mxCell>
        <mxCell id="_IFTZrsZaGohWIfHuZ_6-48" value="" style="text;strokeColor=none;fillColor=#fef1e0;align=left;verticalAlign=middle;spacingLeft=4;spacingRight=4;overflow=hidden;points=[[0,0.5],[1,0.5]];portConstraint=eastwest;rotatable=0;whiteSpace=wrap;html=1;fontSize=15;" parent="_IFTZrsZaGohWIfHuZ_6-13" vertex="1">
          <mxGeometry y="230" width="250" height="70" as="geometry" />
        </mxCell>
        <mxCell id="_IFTZrsZaGohWIfHuZ_6-17" value="RELATED JOBS" style="swimlane;fontStyle=1;childLayout=stackLayout;horizontal=1;startSize=30;horizontalStack=0;resizeParent=1;resizeParentMax=0;resizeLast=0;collapsible=1;marginBottom=0;whiteSpace=wrap;html=1;fillColor=#a2c73b;strokeColor=none;fontColor=#F7F7F7;fontSize=17;" parent="1" vertex="1">
          <mxGeometry x="710" y="250" width="280" height="370" as="geometry" />
        </mxCell>
        <mxCell id="_IFTZrsZaGohWIfHuZ_6-18" value="&lt;span style=&quot;font-size: 14px;&quot; id=&quot;docs-internal-guid-44ac596f-7fff-5714-cf4f-4ffbec55d922&quot;&gt;&lt;span style=&quot;font-size: 14px; font-family: Arial, sans-serif; background-color: transparent; font-variant-numeric: normal; font-variant-east-asian: normal; font-variant-alternates: normal; font-variant-position: normal; vertical-align: baseline; white-space-collapse: preserve;&quot;&gt;Stable work of the application without downtime&lt;/span&gt;&lt;/span&gt;" style="text;strokeColor=none;fillColor=#f3f7e6;align=left;verticalAlign=middle;spacingLeft=4;spacingRight=4;overflow=hidden;points=[[0,0.5],[1,0.5]];portConstraint=eastwest;rotatable=0;whiteSpace=wrap;html=1;fontSize=14;fontStyle=1;fontColor=#7D7D7D;" parent="_IFTZrsZaGohWIfHuZ_6-17" vertex="1">
          <mxGeometry y="30" width="280" height="70" as="geometry" />
        </mxCell>
        <mxCell id="_IFTZrsZaGohWIfHuZ_6-19" value="&lt;span style=&quot;font-size: 14px;&quot; id=&quot;docs-internal-guid-e8816009-7fff-6d38-04c2-4aa179c56acb&quot;&gt;&lt;span style=&quot;font-size: 14px; font-family: Arial, sans-serif; background-color: transparent; font-variant-numeric: normal; font-variant-east-asian: normal; font-variant-alternates: normal; font-variant-position: normal; vertical-align: baseline; white-space-collapse: preserve;&quot;&gt;Save time by automating the control of the application’s work and creating backups&lt;/span&gt;&lt;/span&gt;" style="text;strokeColor=none;fillColor=#f3f7e6;align=left;verticalAlign=middle;spacingLeft=4;spacingRight=4;overflow=hidden;points=[[0,0.5],[1,0.5]];portConstraint=eastwest;rotatable=0;whiteSpace=wrap;html=1;fontSize=14;fontStyle=1;fontColor=#7D7D7D;" parent="_IFTZrsZaGohWIfHuZ_6-17" vertex="1">
          <mxGeometry y="100" width="280" height="60" as="geometry" />
        </mxCell>
        <mxCell id="_IFTZrsZaGohWIfHuZ_6-40" value="" style="text;strokeColor=none;fillColor=#f3f7e6;align=left;verticalAlign=middle;spacingLeft=4;spacingRight=4;overflow=hidden;points=[[0,0.5],[1,0.5]];portConstraint=eastwest;rotatable=0;whiteSpace=wrap;html=1;fontSize=15;" parent="_IFTZrsZaGohWIfHuZ_6-17" vertex="1">
          <mxGeometry y="160" width="280" height="210" as="geometry" />
        </mxCell>
        <mxCell id="_IFTZrsZaGohWIfHuZ_6-25" value="&lt;font style=&quot;font-size: 15px;&quot; color=&quot;#ededed&quot;&gt;&lt;span style=&quot;font-size: 15px;&quot;&gt;Extrinsic motivations&lt;/span&gt;&lt;/font&gt;" style="swimlane;fontStyle=1;childLayout=stackLayout;horizontal=1;startSize=30;horizontalStack=0;resizeParent=1;resizeParentMax=0;resizeLast=0;collapsible=1;marginBottom=0;whiteSpace=wrap;html=1;fillColor=#f49e23;strokeColor=none;fontSize=15;" parent="1" vertex="1">
          <mxGeometry x="430" y="320" width="250" height="300" as="geometry" />
        </mxCell>
        <mxCell id="_IFTZrsZaGohWIfHuZ_6-26" value="&lt;span style=&quot;font-size: 14px;&quot; id=&quot;docs-internal-guid-78b54c04-7fff-26c9-184a-bd2fc62f3d6f&quot;&gt;&lt;span style=&quot;font-size: 14px; font-family: Arial, sans-serif; background-color: transparent; font-variant-numeric: normal; font-variant-east-asian: normal; font-variant-alternates: normal; font-variant-position: normal; vertical-align: baseline; white-space-collapse: preserve;&quot;&gt;The desire not to let down colleagues and users of the application - Ensuring stable work of the application&lt;/span&gt;&lt;/span&gt;" style="text;strokeColor=none;fillColor=#fef1e0;align=left;verticalAlign=middle;spacingLeft=4;spacingRight=4;overflow=hidden;points=[[0,0.5],[1,0.5]];portConstraint=eastwest;rotatable=0;whiteSpace=wrap;html=1;fontSize=14;fontStyle=1;fontColor=#7D7D7D;" parent="_IFTZrsZaGohWIfHuZ_6-25" vertex="1">
          <mxGeometry y="30" width="250" height="90" as="geometry" />
        </mxCell>
        <mxCell id="_IFTZrsZaGohWIfHuZ_6-27" value="&lt;span style=&quot;font-size: 14px;&quot; id=&quot;docs-internal-guid-ba557207-7fff-3a96-7f5b-988de71ece12&quot;&gt;&lt;span style=&quot;font-size: 14px; font-family: Arial, sans-serif; background-color: transparent; font-variant-numeric: normal; font-variant-east-asian: normal; font-variant-alternates: normal; font-variant-position: normal; vertical-align: baseline; white-space-collapse: preserve;&quot;&gt;Receiving encouragement from superiors for quality work&lt;/span&gt;&lt;/span&gt;" style="text;strokeColor=none;fillColor=#fef1e0;align=left;verticalAlign=middle;spacingLeft=4;spacingRight=4;overflow=hidden;points=[[0,0.5],[1,0.5]];portConstraint=eastwest;rotatable=0;whiteSpace=wrap;html=1;fontSize=14;fontStyle=1;fontColor=#7D7D7D;" parent="_IFTZrsZaGohWIfHuZ_6-25" vertex="1">
          <mxGeometry y="120" width="250" height="40" as="geometry" />
        </mxCell>
        <mxCell id="_IFTZrsZaGohWIfHuZ_6-39" value="" style="text;strokeColor=none;fillColor=#fef1e0;align=left;verticalAlign=middle;spacingLeft=4;spacingRight=4;overflow=hidden;points=[[0,0.5],[1,0.5]];portConstraint=eastwest;rotatable=0;whiteSpace=wrap;html=1;fontSize=15;" parent="_IFTZrsZaGohWIfHuZ_6-25" vertex="1">
          <mxGeometry y="160" width="250" height="140" as="geometry" />
        </mxCell>
        <mxCell id="_IFTZrsZaGohWIfHuZ_6-30" value="" style="endArrow=none;html=1;rounded=0;strokeColor=#b8b8b8;entryX=0.5;entryY=1;entryDx=0;entryDy=0;exitX=0.5;exitY=0;exitDx=0;exitDy=0;" parent="1" source="_IFTZrsZaGohWIfHuZ_6-2" target="_IFTZrsZaGohWIfHuZ_6-1" edge="1">
          <mxGeometry width="50" height="50" relative="1" as="geometry">
            <mxPoint x="580" y="250" as="sourcePoint" />
            <mxPoint x="630" y="200" as="targetPoint" />
          </mxGeometry>
        </mxCell>
        <mxCell id="_IFTZrsZaGohWIfHuZ_6-31" value="" style="endArrow=none;html=1;rounded=0;strokeColor=#b8b8b8;exitX=0.5;exitY=0;exitDx=0;exitDy=0;" parent="1" source="_IFTZrsZaGohWIfHuZ_6-17" edge="1">
          <mxGeometry width="50" height="50" relative="1" as="geometry">
            <mxPoint x="410" y="280" as="sourcePoint" />
            <mxPoint x="400" y="220" as="targetPoint" />
            <Array as="points">
              <mxPoint x="850" y="220" />
            </Array>
          </mxGeometry>
        </mxCell>
        <mxCell id="_IFTZrsZaGohWIfHuZ_6-32" value="" style="endArrow=none;html=1;rounded=0;strokeColor=#b8b8b8;exitX=0.5;exitY=0;exitDx=0;exitDy=0;" parent="1" source="_IFTZrsZaGohWIfHuZ_6-4" edge="1">
          <mxGeometry width="50" height="50" relative="1" as="geometry">
            <mxPoint x="900" y="280" as="sourcePoint" />
            <mxPoint x="400" y="220" as="targetPoint" />
            <Array as="points">
              <mxPoint x="-50" y="220" />
            </Array>
          </mxGeometry>
        </mxCell>
        <mxCell id="_IFTZrsZaGohWIfHuZ_6-33" value="" style="endArrow=none;html=1;rounded=0;strokeColor=#b8b8b8;entryX=0;entryY=0.5;entryDx=0;entryDy=0;exitX=0.5;exitY=0;exitDx=0;exitDy=0;" parent="1" source="_IFTZrsZaGohWIfHuZ_6-13" target="_IFTZrsZaGohWIfHuZ_6-2" edge="1">
          <mxGeometry width="50" height="50" relative="1" as="geometry">
            <mxPoint x="410" y="260" as="sourcePoint" />
            <mxPoint x="410" y="160" as="targetPoint" />
            <Array as="points">
              <mxPoint x="245" y="280" />
            </Array>
          </mxGeometry>
        </mxCell>
        <mxCell id="_IFTZrsZaGohWIfHuZ_6-35" value="" style="endArrow=none;html=1;rounded=0;strokeColor=#b8b8b8;entryX=1;entryY=0.5;entryDx=0;entryDy=0;exitX=0.5;exitY=0;exitDx=0;exitDy=0;" parent="1" source="_IFTZrsZaGohWIfHuZ_6-25" target="_IFTZrsZaGohWIfHuZ_6-2" edge="1">
          <mxGeometry width="50" height="50" relative="1" as="geometry">
            <mxPoint x="270" y="380" as="sourcePoint" />
            <mxPoint x="290" y="290" as="targetPoint" />
            <Array as="points">
              <mxPoint x="555" y="280" />
            </Array>
          </mxGeometry>
        </mxCell>
      </root>
    </mxGraphModel>
  </diagram>
</mxfile>
